<svg xmlns="http://www.w3.org/2000/svg" width="32" height="28" viewBox="0 0 32 28">
  <path id="ico_write" d="M22.35,18.788l1.778-1.75a.448.448,0,0,1,.761.312V25.3a2.647,2.647,0,0,1-2.667,2.625H2.667A2.647,2.647,0,0,1,0,25.3V6.053A2.647,2.647,0,0,1,2.667,3.429H17.861a.439.439,0,0,1,.317.749L16.4,5.927a.444.444,0,0,1-.317.126H2.667V25.3H22.223V19.094A.427.427,0,0,1,22.35,18.788Zm8.7-11.034L16.461,22.113l-5.022.547a2.277,2.277,0,0,1-2.533-2.493l.556-4.943L24.051.864a3.279,3.279,0,0,1,4.595,0l2.4,2.362a3.167,3.167,0,0,1,.006,4.527Zm-5.489,1.69L22.334,6.266,12.011,16.431,11.606,20l3.628-.4Zm3.6-4.358-2.4-2.362a.587.587,0,0,0-.822,0l-1.717,1.69L27.451,7.59,29.167,5.9A.576.576,0,0,0,29.162,5.085Z" transform="translate(0 0.075)" fill="#f27226"/>
</svg>
