<svg xmlns="http://www.w3.org/2000/svg" width="24.044" height="22.097" viewBox="0 0 24.044 22.097">
  <path id="ico_chat" d="M6.216,4.952H25.787a2.237,2.237,0,0,1,2.236,2.236V19.676a2.237,2.237,0,0,1-2.236,2.236H22.058v5.137l-5.7-5.137H6.215a2.236,2.236,0,0,1-2.236-2.236V7.188A2.237,2.237,0,0,1,6.216,4.952ZM22,13.969a1,1,0,1,0-1-1A1,1,0,0,0,22,13.969Zm-4-.042a1,1,0,1,0-1-1A1,1,0,0,0,18,13.927Zm-4.02.021a1,1,0,1,0-1-1A1,1,0,0,0,13.981,13.948ZM10,13.969a1,1,0,1,0-1-1A1,1,0,0,0,10,13.969Z" transform="translate(-3.979 -4.952)" fill="#8e8e8e"/>
</svg>
